<?xml version="1.0" encoding="UTF-8"?><svg xmlns="http://www.w3.org/2000/svg" xmlns:xlink="http://www.w3.org/1999/xlink" fill-opacity="1" color-rendering="auto" color-interpolation="auto" text-rendering="auto" stroke="black" stroke-linecap="square" width="963" stroke-miterlimit="10" shape-rendering="auto" stroke-opacity="1" fill="black" stroke-dasharray="none" font-weight="normal" stroke-width="1" height="798" font-family="'Dialog'" font-style="normal" stroke-linejoin="miter" font-size="12px" stroke-dashoffset="0" image-rendering="auto">
  <!--Generated by ySVG 2.5-->
  <defs id="genericDefs"/>
  <g>
    <defs id="defs1">
      <linearGradient x1="168.5" gradientUnits="userSpaceOnUse" x2="519.5" y1="277" y2="471" id="linearGradient1" spreadMethod="reflect">
        <stop stop-opacity="1" stop-color="rgb(232,238,247)" offset="0%"/>
        <stop stop-opacity="1" stop-color="rgb(204,153,255)" offset="100%"/>
      </linearGradient>
      <clipPath clipPathUnits="userSpaceOnUse" id="clipPath1">
        <path d="M0 0 L963 0 L963 798 L0 798 L0 0 Z"/>
      </clipPath>
      <clipPath clipPathUnits="userSpaceOnUse" id="clipPath2">
        <path d="M-428 -264 L535 -264 L535 534 L-428 534 L-428 -264 Z"/>
      </clipPath>
    </defs>
    <g fill="white" text-rendering="geometricPrecision" shape-rendering="geometricPrecision" transform="translate(428,264)" stroke="white">
      <rect x="-428" width="963" height="798" y="-264" clip-path="url(#clipPath2)" stroke="none"/>
    </g>
    <g fill="rgb(245,245,245)" text-rendering="geometricPrecision" shape-rendering="geometricPrecision" transform="matrix(1,0,0,1,428,264)" stroke="rgb(245,245,245)">
      <rect x="-413" y="239.6235" clip-path="url(#clipPath2)" width="368" rx="4" ry="4" height="279.3765" stroke="none"/>
      <rect x="-413" y="239.6235" clip-path="url(#clipPath2)" fill="rgb(235,235,235)" width="368" height="22.3765" stroke="none"/>
    </g>
    <g font-size="15px" stroke-linecap="butt" transform="matrix(1,0,0,1,428,264)" text-rendering="geometricPrecision" font-family="sans-serif" shape-rendering="geometricPrecision" stroke-miterlimit="1.45">
      <text x="-261.2554" xml:space="preserve" y="256.7041" clip-path="url(#clipPath2)" stroke="none">Subject: CS Exemple - Report X</text>
      <rect x="-413" y="239.6235" clip-path="url(#clipPath2)" fill="none" width="368" stroke-dasharray="6,2" rx="4" ry="4" height="279.3765"/>
    </g>
    <g fill="white" text-rendering="geometricPrecision" shape-rendering="geometricPrecision" transform="matrix(1,0,0,1,428,264)" stroke="white">
      <rect x="-398" width="338" height="227" y="277" clip-path="url(#clipPath2)" stroke="none"/>
    </g>
    <g text-rendering="geometricPrecision" stroke-miterlimit="1.45" shape-rendering="geometricPrecision" transform="matrix(1,0,0,1,428,264)" stroke-linecap="butt">
      <rect fill="none" x="-398" width="338" height="227" y="277" clip-path="url(#clipPath2)"/>
      <text x="-330.7217" xml:space="preserve" y="351.1104" clip-path="url(#clipPath2)" font-family="sans-serif" stroke="none">Dear Sir/Madam,</text>
      <text x="-330.7217" xml:space="preserve" y="365.8115" clip-path="url(#clipPath2)" font-family="sans-serif" stroke="none"> </text>
      <text x="-330.7217" xml:space="preserve" y="380.5127" clip-path="url(#clipPath2)" font-family="sans-serif" stroke="none">Please find attached my report for the </text>
      <text x="-330.7217" xml:space="preserve" y="395.2139" clip-path="url(#clipPath2)" font-family="sans-serif" stroke="none">first trimester of 2019.</text>
      <text x="-330.7217" xml:space="preserve" y="409.915" clip-path="url(#clipPath2)" font-family="sans-serif" stroke="none"> </text>
      <text x="-330.7217" xml:space="preserve" y="424.6162" clip-path="url(#clipPath2)" font-family="sans-serif" stroke="none">Cheers,</text>
      <text x="-330.7217" xml:space="preserve" y="439.3174" clip-path="url(#clipPath2)" font-family="sans-serif" stroke="none">HC IT</text>
    </g>
    <g fill="rgb(204,153,255)" text-rendering="geometricPrecision" shape-rendering="geometricPrecision" transform="matrix(1,0,0,1,428,264)" stroke="rgb(204,153,255)">
      <rect x="-392" y="468" clip-path="url(#clipPath2)" width="145" rx="4" ry="4" height="30" stroke="none"/>
    </g>
    <g text-rendering="geometricPrecision" stroke-miterlimit="1.45" shape-rendering="geometricPrecision" transform="matrix(1,0,0,1,428,264)" stroke-linecap="butt">
      <rect x="-392" y="468" clip-path="url(#clipPath2)" fill="none" width="145" rx="4" ry="4" height="30"/>
      <text x="-378.8584" xml:space="preserve" y="487.7139" clip-path="url(#clipPath2)" font-family="sans-serif" stroke="none">Attachment - Report X</text>
    </g>
    <g fill="rgb(204,153,255)" text-rendering="geometricPrecision" shape-rendering="geometricPrecision" transform="matrix(1,0,0,1,428,264)" stroke="rgb(204,153,255)">
      <rect x="-233" y="468" clip-path="url(#clipPath2)" width="145" rx="4" ry="4" height="30" stroke="none"/>
    </g>
    <g text-rendering="geometricPrecision" stroke-miterlimit="1.45" shape-rendering="geometricPrecision" transform="matrix(1,0,0,1,428,264)" stroke-linecap="butt">
      <rect x="-233" y="468" clip-path="url(#clipPath2)" fill="none" width="145" rx="4" ry="4" height="30"/>
      <text x="-219.8584" xml:space="preserve" y="487.7139" clip-path="url(#clipPath2)" font-family="sans-serif" stroke="none">Attachment - Report Y</text>
    </g>
    <g fill="url(#linearGradient1)" text-rendering="geometricPrecision" shape-rendering="geometricPrecision" transform="matrix(1,0,0,1,428,264)" stroke="url(#linearGradient1)">
      <path d="M212.375 379.82 C168.5 325.5 212.375 277 284.33 311.92 C284.33 277 403.67 277 403.67 311.92 C475.625 277 519.5 325.5 475.625 368.18 C519.5 422.5 475.625 471 421.22 436.08 C403.67 471 284.33 471 301.88 436.08 C212.375 471 168.5 422.5 212.375 379.82 Z" stroke="none" clip-path="url(#clipPath2)"/>
    </g>
    <g text-rendering="geometricPrecision" stroke-miterlimit="1.45" shape-rendering="geometricPrecision" transform="matrix(1,0,0,1,428,264)" stroke-linecap="butt">
      <path fill="none" d="M212.375 379.82 C168.5 325.5 212.375 277 284.33 311.92 C284.33 277 403.67 277 403.67 311.92 C475.625 277 519.5 325.5 475.625 368.18 C519.5 422.5 475.625 471 421.22 436.08 C403.67 471 284.33 471 301.88 436.08 C212.375 471 168.5 422.5 212.375 379.82 Z" clip-path="url(#clipPath2)"/>
      <text x="285.8926" xml:space="preserve" y="378.7139" clip-path="url(#clipPath2)" font-family="sans-serif" stroke="none">clownfish@email.com</text>
    </g>
    <g text-rendering="geometricPrecision" stroke-miterlimit="1.45" shape-rendering="geometricPrecision" transform="matrix(1,0,0,1,428,264)" stroke-linecap="butt">
      <path fill="none" d="M-45.0063 377.6061 L200.9023 375.3265" clip-path="url(#clipPath2)"/>
      <path d="M208.902 375.2524 L196.8561 370.3638 L199.9024 375.3358 L196.9488 380.3634 Z" clip-path="url(#clipPath2)" stroke="none"/>
    </g>
    <g fill="rgb(245,245,245)" text-rendering="geometricPrecision" shape-rendering="geometricPrecision" transform="matrix(1,0,0,1,428,264)" stroke="rgb(245,245,245)">
      <rect x="231.4866" y="-248.4548" clip-path="url(#clipPath2)" width="220.5134" rx="4" ry="4" height="336.1686" stroke="none"/>
      <rect x="231.4866" y="-248.4548" clip-path="url(#clipPath2)" fill="rgb(235,235,235)" width="220.5134" height="22.3765" stroke="none"/>
    </g>
    <g font-size="15px" stroke-linecap="butt" transform="matrix(1,0,0,1,428,264)" text-rendering="geometricPrecision" font-family="sans-serif" shape-rendering="geometricPrecision" stroke-miterlimit="1.45">
      <text x="362.4609" xml:space="preserve" y="-231.3743" clip-path="url(#clipPath2)" stroke="none">Google Drive</text>
      <rect x="231.4866" y="-248.4548" clip-path="url(#clipPath2)" fill="none" width="220.5134" stroke-dasharray="6,2" rx="4" ry="4" height="336.1686"/>
      <path fill="none" d="M343.5616 285.7272 L342.6178 95.7072" clip-path="url(#clipPath2)"/>
      <path d="M342.5781 87.7073 L337.6377 99.732 L342.6228 96.7072 L347.6376 99.6823 Z" stroke="none" clip-path="url(#clipPath2)"/>
    </g>
    <g fill="rgb(225,225,225)" text-rendering="geometricPrecision" shape-rendering="geometricPrecision" transform="matrix(1,0,0,1,428,264)" stroke="rgb(225,225,225)">
      <rect x="251" y="-211.0784" clip-path="url(#clipPath2)" width="181" rx="4" ry="4" height="142.5059" stroke="none"/>
      <rect x="251" y="-211.0784" clip-path="url(#clipPath2)" fill="rgb(235,235,235)" width="181" height="22.3765" stroke="none"/>
    </g>
    <g font-size="15px" stroke-linecap="butt" transform="matrix(1,0,0,1,428,264)" text-rendering="geometricPrecision" font-family="sans-serif" shape-rendering="geometricPrecision" stroke-miterlimit="1.45">
      <text x="346.6357" xml:space="preserve" y="-193.9978" clip-path="url(#clipPath2)" stroke="none">CS Exemple</text>
      <rect x="251" y="-211.0784" clip-path="url(#clipPath2)" fill="none" width="181" stroke-dasharray="6,2" rx="4" ry="4" height="142.5059"/>
    </g>
    <g fill="rgb(204,255,204)" text-rendering="geometricPrecision" shape-rendering="geometricPrecision" transform="matrix(1,0,0,1,428,264)" stroke="rgb(204,255,204)">
      <rect x="266" width="151" height="30" y="-161.4745" clip-path="url(#clipPath2)" stroke="none"/>
    </g>
    <g text-rendering="geometricPrecision" stroke-miterlimit="1.45" shape-rendering="geometricPrecision" transform="matrix(1,0,0,1,428,264)" stroke-linecap="butt">
      <rect fill="none" x="266" width="151" height="30" y="-161.4745" clip-path="url(#clipPath2)"/>
      <text x="317.8223" xml:space="preserve" y="-141.7606" clip-path="url(#clipPath2)" font-family="sans-serif" stroke="none">Report X</text>
    </g>
    <g fill="rgb(204,255,204)" text-rendering="geometricPrecision" shape-rendering="geometricPrecision" transform="matrix(1,0,0,1,428,264)" stroke="rgb(204,255,204)">
      <rect x="266" width="151" height="30" y="-122.949" clip-path="url(#clipPath2)" stroke="none"/>
    </g>
    <g text-rendering="geometricPrecision" stroke-miterlimit="1.45" shape-rendering="geometricPrecision" transform="matrix(1,0,0,1,428,264)" stroke-linecap="butt">
      <rect fill="none" x="266" width="151" height="30" y="-122.949" clip-path="url(#clipPath2)"/>
      <text x="317.8223" xml:space="preserve" y="-103.2351" clip-path="url(#clipPath2)" font-family="sans-serif" stroke="none">Report Y</text>
    </g>
    <g fill="rgb(225,225,225)" text-rendering="geometricPrecision" shape-rendering="geometricPrecision" transform="matrix(1,0,0,1,428,264)" stroke="rgb(225,225,225)">
      <rect x="251" y="-51.0902" clip-path="url(#clipPath2)" width="181" rx="4" ry="4" height="118.804" stroke="none"/>
      <rect x="251" y="-51.0902" clip-path="url(#clipPath2)" fill="rgb(235,235,235)" width="181" height="22.3765" stroke="none"/>
    </g>
    <g font-size="15px" stroke-linecap="butt" transform="matrix(1,0,0,1,428,264)" text-rendering="geometricPrecision" font-family="sans-serif" shape-rendering="geometricPrecision" stroke-miterlimit="1.45">
      <text x="274.939" xml:space="preserve" y="-34.0096" clip-path="url(#clipPath2)" stroke="none">CS Deuxieme Exemple</text>
      <rect x="251" y="-51.0902" clip-path="url(#clipPath2)" fill="none" width="181" stroke-dasharray="6,2" rx="4" ry="4" height="118.804"/>
    </g>
    <g fill="rgb(255,153,204)" text-rendering="geometricPrecision" shape-rendering="geometricPrecision" transform="matrix(1,0,0,1,428,264)" stroke="rgb(255,153,204)">
      <rect x="266" width="151" height="30" y="-13.7137" clip-path="url(#clipPath2)" stroke="none"/>
    </g>
    <g text-rendering="geometricPrecision" stroke-miterlimit="1.45" shape-rendering="geometricPrecision" transform="matrix(1,0,0,1,428,264)" stroke-linecap="butt">
      <rect fill="none" x="266" width="151" height="30" y="-13.7137" clip-path="url(#clipPath2)"/>
      <text x="316.1611" xml:space="preserve" y="6.0001" clip-path="url(#clipPath2)" font-family="sans-serif" stroke="none">Report W</text>
    </g>
    <g fill="rgb(255,153,204)" text-rendering="geometricPrecision" shape-rendering="geometricPrecision" transform="matrix(1,0,0,1,428,264)" stroke="rgb(255,153,204)">
      <rect x="266" width="151" height="30" y="22.7137" clip-path="url(#clipPath2)" stroke="none"/>
    </g>
    <g text-rendering="geometricPrecision" stroke-miterlimit="1.45" shape-rendering="geometricPrecision" transform="matrix(1,0,0,1,428,264)" stroke-linecap="butt">
      <rect fill="none" x="266" width="151" height="30" y="22.7137" clip-path="url(#clipPath2)"/>
      <text x="316.4922" xml:space="preserve" y="42.4276" clip-path="url(#clipPath2)" font-family="sans-serif" stroke="none">Report  Z</text>
    </g>
  </g>
</svg>
